<svg xmlns="http://www.w3.org/2000/svg" width="141.765" height="88.434" viewBox="0 0 141.765 88.434"><defs><style>.a{fill:#fff;}</style></defs><g transform="translate(-670.735 -2859.497)"><path class="a" d="M47.471,80.066a26.167,26.167,0,0,0-22.35,39.761h0a6.386,6.386,0,0,0,5.533,3.208,6.312,6.312,0,0,0,6.207-6.4V101.242l14.4.117c.077,0,.606.059.606.059a6.637,6.637,0,0,1,2.026.464,6.708,6.708,0,0,1,2.167,1.449,7.2,7.2,0,0,1,1.49,2.206,7.914,7.914,0,0,1,.638,2.788,6.71,6.71,0,0,1-.542,2.688,7,7,0,0,1-3.695,3.7,6.724,6.724,0,0,1-2.69.542,6.864,6.864,0,0,1-2.709-.542,6.948,6.948,0,0,1-3.714-3.7,6.71,6.71,0,0,1-.542-2.688,6.858,6.858,0,0,1,.542-2.709l.147-.34.02-.046.026-.059-.013-.008a1.126,1.126,0,0,0,.073-.363,1.166,1.166,0,0,0-1.166-1.166,1.178,1.178,0,0,0-1.091.736l0,0-.007,0,0,0c-.055.1-.13.2-.176.306a9.121,9.121,0,0,0-.02,7.217,9.71,9.71,0,0,0,1.993,2.96,9.224,9.224,0,0,0,6.637,2.747,9.417,9.417,0,0,0,3.6-.7,9.258,9.258,0,0,0,2.98-1.936l.348-.347v1.819a1.2,1.2,0,1,0,2.4,0V94.123a1.2,1.2,0,1,0-2.4,0v8.319a12.728,12.728,0,0,0-3.056-2.418,8.318,8.318,0,0,0-3.441-1.057c-.158-.075-14.827-.124-14.827-.124v-.813a2.7,2.7,0,0,1,2.708-2.708,1.2,1.2,0,1,0,0-2.4,4.983,4.983,0,0,0-2.013.405,5.3,5.3,0,0,0-1.625,1.1,4.977,4.977,0,0,0-1.083,1.625,5.06,5.06,0,0,0-.388,1.973v.813H32.875a1.2,1.2,0,1,0,0,2.4h1.586v15.21l0,.184a3.912,3.912,0,0,1-3.809,4,3.963,3.963,0,0,1-3.494-2.073h0a23.763,23.763,0,1,1,20.311,11.426v1.2l0-1.2H47.4a23.68,23.68,0,0,1-12.751-3.73l-1.29,2.022A26.06,26.06,0,0,0,47.4,132.385h.072v0a26.16,26.16,0,0,0,0-52.32Z" transform="translate(694.471 2779.431)"></path><g transform="translate(670.735 2927.441)"><path class="a" d="M59.134,92.136a4.177,4.177,0,0,1,.321-1.633,4.092,4.092,0,0,1,.9-1.345,4.354,4.354,0,0,1,1.345-.913,4.107,4.107,0,0,1,1.664-.336.993.993,0,1,1,0,1.986,2.24,2.24,0,0,0-2.241,2.241v.672H63.3a.992.992,0,1,1,0,1.984H61.118v12.582a.992.992,0,1,1-1.985,0V94.793H57.822a.992.992,0,1,1,0-1.984h1.312Z" transform="translate(-56.829 -87.909)"></path><path class="a" d="M63.706,88.9a.992.992,0,1,1,1.984,0v18.473a.992.992,0,1,1-1.984,0Z" transform="translate(-54.71 -87.909)"></path><path class="a" d="M68.5,100.411a5.44,5.44,0,0,0,.672,1.9,5.784,5.784,0,0,0,2.977,2.529,5.578,5.578,0,0,0,2.017.369,5.64,5.64,0,0,0,2.21-.433,5.963,5.963,0,0,0,1.825-1.2,1,1,0,0,1,1.409,1.408,6.009,6.009,0,0,1-2.386,1.681,8.7,8.7,0,0,1-3.057.5,7.726,7.726,0,0,1-5.442-2.177,7.451,7.451,0,0,1-1.665-2.433,7.665,7.665,0,0,1-.608-3.073,7.6,7.6,0,0,1,2.225-5.428,7.964,7.964,0,0,1,2.465-1.664,8.42,8.42,0,0,1,3.09-.688,7.166,7.166,0,0,1,2.9.608,7.881,7.881,0,0,1,2.449,1.665,8.358,8.358,0,0,1,1.7,2.449,7.085,7.085,0,0,1,.641,2.993.889.889,0,0,1-.32.737,1.06,1.06,0,0,1-.672.256ZM79.83,98.426a5.787,5.787,0,0,0-.705-1.858,5.686,5.686,0,0,0-1.264-1.487,6.115,6.115,0,0,0-1.7-.993,5.61,5.61,0,0,0-4,0,6.085,6.085,0,0,0-1.7.993,5.439,5.439,0,0,0-1.248,1.487,5.942,5.942,0,0,0-.688,1.858Z" transform="translate(-53.865 -86.74)"></path><path class="a" d="M78.76,93.4a1.161,1.161,0,0,1-.321-.735.853.853,0,0,1,.321-.705,1.1,1.1,0,0,1,.7-.255.912.912,0,0,1,.672.255l5.988,6.084,5.986-6.084a.912.912,0,0,1,.672-.255,1.041,1.041,0,0,1,.688.255.875.875,0,0,1,.3.705,1.062,1.062,0,0,1-.288.735L87.5,99.45l6.019,6.052a1.146,1.146,0,0,1,.288.735.9.9,0,0,1-.3.674.978.978,0,0,1-.688.288.909.909,0,0,1-.705-.32l-5.986-6.019-5.988,6.019a.91.91,0,0,1-.7.32.978.978,0,0,1-.688-.288.9.9,0,0,1-.3-.674,1.146,1.146,0,0,1,.288-.735l5.988-6.052Z" transform="translate(-50.169 -86.74)"></path><path class="a" d="M92.193,89.222a1.311,1.311,0,1,1,.385.929A1.266,1.266,0,0,1,92.193,89.222Zm.32,4.577a.992.992,0,1,1,1.985,0v13.575a.992.992,0,1,1-1.985,0Z" transform="translate(-45.931 -87.909)"></path><path class="a" d="M108.511,88.9a.992.992,0,1,1,1.984,0v18.473a.992.992,0,1,1-1.984,0v-1.5l-.288.288a7.678,7.678,0,0,1-2.466,1.6,7.782,7.782,0,0,1-2.977.576,7.64,7.64,0,0,1-5.49-2.272,8.025,8.025,0,0,1-1.65-2.45,7.537,7.537,0,0,1,.016-5.969A8.069,8.069,0,0,1,99.787,93.5a7.081,7.081,0,0,1,2.929-.624,6.924,6.924,0,0,1,3.265.912,10.529,10.529,0,0,1,2.53,2Zm0,11.75a6.549,6.549,0,0,0-.529-2.306,5.968,5.968,0,0,0-1.232-1.825,5.6,5.6,0,0,0-3.97-1.633,5.684,5.684,0,0,0-2.241.449,5.711,5.711,0,0,0-3.074,3.073,5.671,5.671,0,0,0-.447,2.242,5.548,5.548,0,0,0,.447,2.225A5.8,5.8,0,0,0,98.7,104.7a5.737,5.737,0,0,0,1.841,1.232,5.661,5.661,0,0,0,2.241.449,5.558,5.558,0,0,0,2.225-.449,5.786,5.786,0,0,0,3.057-3.057A5.571,5.571,0,0,0,108.511,100.652Z" transform="translate(-45.056 -87.909)"></path><path class="a" d="M108.052,92.646a.993.993,0,1,1,1.986,0v1.57a8.351,8.351,0,0,1,2.465-1.841,6.9,6.9,0,0,1,3.137-.721,1.14,1.14,0,0,1,.818.288.969.969,0,0,1,0,1.409,1.14,1.14,0,0,1-.818.288,5.173,5.173,0,0,0-2.144.447A5.724,5.724,0,0,0,111.75,95.3a6.383,6.383,0,0,0-1.217,1.762,5.209,5.209,0,0,0-.5,2.081v7.075a.993.993,0,1,1-1.986,0Z" transform="translate(-41.043 -86.755)"></path><path class="a" d="M116.783,100.411a5.414,5.414,0,0,0,.672,1.9,5.784,5.784,0,0,0,2.977,2.529,5.573,5.573,0,0,0,2.017.369,5.635,5.635,0,0,0,2.209-.433,5.994,5.994,0,0,0,1.825-1.2,1,1,0,0,1,1.408,1.408,6,6,0,0,1-2.385,1.681,8.7,8.7,0,0,1-3.057.5,7.732,7.732,0,0,1-5.443-2.177,7.468,7.468,0,0,1-1.664-2.433,7.666,7.666,0,0,1-.608-3.073,7.617,7.617,0,0,1,2.225-5.428,7.954,7.954,0,0,1,2.466-1.664,8.407,8.407,0,0,1,3.089-.688,7.156,7.156,0,0,1,2.9.608,7.887,7.887,0,0,1,2.45,1.665,8.382,8.382,0,0,1,1.7,2.449,7.085,7.085,0,0,1,.641,2.993.889.889,0,0,1-.32.737,1.065,1.065,0,0,1-.672.256Zm11.334-1.986a5.788,5.788,0,0,0-.705-1.858,5.662,5.662,0,0,0-1.264-1.487,6.1,6.1,0,0,0-1.7-.993,5.61,5.61,0,0,0-4,0,6.09,6.09,0,0,0-1.7.993,5.4,5.4,0,0,0-1.249,1.487,5.975,5.975,0,0,0-.688,1.858Z" transform="translate(-38.984 -86.74)"></path><path class="a" d="M140.864,104.285a10.043,10.043,0,0,1-2.544,2.033,6.392,6.392,0,0,1-3.217.848,7.726,7.726,0,0,1-5.443-2.177A7.447,7.447,0,0,1,128,102.556a7.643,7.643,0,0,1-.608-3.073,7.8,7.8,0,0,1,.591-3.026,7.683,7.683,0,0,1,1.633-2.48,7.605,7.605,0,0,1,2.466-1.665,7.784,7.784,0,0,1,3.09-.608,7.079,7.079,0,0,1,2.928.624,8.069,8.069,0,0,1,4.131,4.147,7.339,7.339,0,0,1,.624,3.009v6.754a.993.993,0,1,1-1.986,0Zm0-4.8a5.671,5.671,0,0,0-.447-2.242,5.7,5.7,0,0,0-3.073-3.073,5.694,5.694,0,0,0-2.241-.449,5.577,5.577,0,0,0-2.227.449,5.755,5.755,0,0,0-3.057,3.073,5.672,5.672,0,0,0-.449,2.242,5.549,5.549,0,0,0,.449,2.225,5.8,5.8,0,0,0,3.057,3.057,5.719,5.719,0,0,0,4.4.016,5.779,5.779,0,0,0,1.808-1.2,5.861,5.861,0,0,0,1.249-1.809A6.375,6.375,0,0,0,140.864,99.483Z" transform="translate(-35.085 -86.74)"></path><path class="a" d="M140.822,92.668a.993.993,0,1,1,1.986,0v.353a5.573,5.573,0,0,1,1.423-.993,3.937,3.937,0,0,1,1.809-.449,5.008,5.008,0,0,1,2.435.593,5.253,5.253,0,0,1,1.792,1.584,5.551,5.551,0,0,1,1.825-1.584,5,5,0,0,1,2.433-.593,5.132,5.132,0,0,1,2.05.416,5.24,5.24,0,0,1,2.785,2.786,5.119,5.119,0,0,1,.415,2.049v9.412a.992.992,0,1,1-1.983,0V96.831a3.154,3.154,0,0,0-.256-1.264,3.33,3.33,0,0,0-1.745-1.746,3.264,3.264,0,0,0-2.53,0,3.123,3.123,0,0,0-1.023.705,3.433,3.433,0,0,0-.689,1.041,3.13,3.13,0,0,0-.255,1.264v9.412a.993.993,0,1,1-1.986,0V96.831a3.375,3.375,0,0,0-1.009-2.338,3.108,3.108,0,0,0-2.258-.927,3.065,3.065,0,0,0-2.257.912,3.261,3.261,0,0,0-.976,2.225v9.541a.993.993,0,1,1-1.986,0Z" transform="translate(-30.945 -86.778)"></path><path class="a" d="M156.959,95.712a3.52,3.52,0,0,1,1.633-3.138,5.074,5.074,0,0,1,1.664-.688,8.475,8.475,0,0,1,1.856-.208,8.253,8.253,0,0,1,1.634.175,6.89,6.89,0,0,1,1.6.53,4.066,4.066,0,0,1,1.217.863,1.725,1.725,0,0,1,.48,1.217,1.168,1.168,0,0,1-.241.689.9.9,0,0,1-.784.336,1.011,1.011,0,0,1-.929-.705,1.866,1.866,0,0,0-1.121-.912,5.378,5.378,0,0,0-1.858-.3,7.742,7.742,0,0,0-1.1.081,3.019,3.019,0,0,0-1.01.319,2.218,2.218,0,0,0-.751.657,1.8,1.8,0,0,0-.3,1.088,1.233,1.233,0,0,0,.3.832,2.518,2.518,0,0,0,.768.593,4.315,4.315,0,0,0,1.024.368c.373.085.731.161,1.071.225a12.687,12.687,0,0,1,2.226.56,6.974,6.974,0,0,1,1.824.945,4.507,4.507,0,0,1,1.249,1.376,3.632,3.632,0,0,1,.464,1.856,4.2,4.2,0,0,1-.449,1.937,4.487,4.487,0,0,1-1.232,1.5,5.663,5.663,0,0,1-1.841.961,7.363,7.363,0,0,1-2.242.336,6.637,6.637,0,0,1-3.536-.929,4.51,4.51,0,0,1-2.034-2.561.98.98,0,0,1-.031-.288,1.1,1.1,0,0,1,.272-.736.9.9,0,0,1,.719-.319,1.009,1.009,0,0,1,.625.207,1.46,1.46,0,0,1,.433.561,2.968,2.968,0,0,0,1.423,1.553,4.527,4.527,0,0,0,2.128.529,4.8,4.8,0,0,0,2.675-.721,2.3,2.3,0,0,0,1.1-2.034,2.139,2.139,0,0,0-1.088-1.792,6.294,6.294,0,0,0-2.691-.96,8.922,8.922,0,0,1-3.73-1.265A3.079,3.079,0,0,1,156.959,95.712Z" transform="translate(-26.11 -86.747)"></path></g></g></svg>