<svg xmlns="http://www.w3.org/2000/svg" width="61.965" height="61.967" viewBox="0 0 61.965 61.967"><defs><style>.a{fill:#fff;}</style></defs><path class="a" d="M52.295,80.066a30.991,30.991,0,0,0-26.471,47.092h0a7.564,7.564,0,0,0,6.553,3.8,7.476,7.476,0,0,0,7.351-7.579V105.293l17.052-.008c.091,0,.717.069.717.069a7.862,7.862,0,0,1,2.4.55,7.945,7.945,0,0,1,2.567,1.716,8.528,8.528,0,0,1,1.765,2.613,9.373,9.373,0,0,1,.756,3.3,7.948,7.948,0,0,1-.642,3.184,8.29,8.29,0,0,1-4.376,4.378,7.964,7.964,0,0,1-3.186.642,8.13,8.13,0,0,1-3.209-.642,8.229,8.229,0,0,1-4.4-4.378,7.948,7.948,0,0,1-.642-3.184,8.123,8.123,0,0,1,.642-3.209l.174-.4.023-.054.031-.069-.015-.01a1.334,1.334,0,0,0,.087-.43,1.381,1.381,0,0,0-1.381-1.381,1.4,1.4,0,0,0-1.292.872l0,.006-.008,0,0,.006c-.066.116-.154.241-.208.363a10.8,10.8,0,0,0-.023,8.547,11.5,11.5,0,0,0,2.36,3.506,10.925,10.925,0,0,0,7.861,3.253,11.153,11.153,0,0,0,4.262-.823,10.965,10.965,0,0,0,3.529-2.293l.413-.411v2.154a1.42,1.42,0,1,0,2.841,0V96.715a1.42,1.42,0,1,0-2.841,0v9.853a15.075,15.075,0,0,0-3.62-2.864,9.852,9.852,0,0,0-4.075-1.252c-.187-.089-17.561,0-17.561,0v-.962a3.2,3.2,0,0,1,3.207-3.207,1.421,1.421,0,1,0,0-2.843,5.9,5.9,0,0,0-2.384.48,6.274,6.274,0,0,0-1.925,1.308,5.9,5.9,0,0,0-1.282,1.925,5.993,5.993,0,0,0-.459,2.337v.962H35.007a1.42,1.42,0,1,0,0,2.841h1.878v17.868l0,.218a4.633,4.633,0,0,1-4.511,4.736,4.693,4.693,0,0,1-4.139-2.455h0a28.145,28.145,0,1,1,24.056,13.532v1.417l0-1.421H52.21a28.046,28.046,0,0,1-15.1-4.418l-1.527,2.4a30.865,30.865,0,0,0,16.63,4.866h.085v0a30.983,30.983,0,1,0,0-61.967Z" transform="translate(-21.313 -80.066)"></path></svg>